<svg width="0" height="0" class="hidden">
  <symbol width="17" height="17" fill="none" xmlns="http://www.w3.org/2000/svg" viewBox="0 0 17 17" id="search">
        <path d="M7.66667 14.3333C11.3486 14.3333 14.3333 11.3486 14.3333 7.66667C14.3333 3.98477 11.3486 1 7.66667 1C3.98477 1 1 3.98477 1 7.66667C1 11.3486 3.98477 14.3333 7.66667 14.3333Z" stroke="#6F6F6F" stroke-width="2" stroke-linecap="round" stroke-linejoin="round"></path>
        <path d="M16 16L12.375 12.375" stroke="#6F6F6F" stroke-width="2" stroke-linecap="round" stroke-linejoin="round"></path>
  </symbol>
  <symbol width="17" height="17" xmlns="http://www.w3.org/2000/svg" fill="none" stroke="currentColor" stroke-width="2" stroke-linecap="round" stroke-linejoin="round" viewBox="0 0 24 24" id="log-in">
    <path d="M15 3h4a2 2 0 0 1 2 2v14a2 2 0 0 1-2 2h-4"></path>
    <polyline points="10 17 15 12 10 7"></polyline>
    <line x1="15" y1="12" x2="3" y2="12"></line>
  </symbol>
  <symbol width="8" height="4" fill="none" xmlns="http://www.w3.org/2000/svg" viewBox="0 0 10 6" id="jackdaw">
    <path d="M1 1L5 5L9 1" stroke="#333333" stroke-linecap="round" stroke-linejoin="round"></path>
  </symbol>
  <symbol width="20" height="20" fill="none" xmlns="http://www.w3.org/2000/svg" viewBox="0 0 23 22" id="check-circle">
    <path d="M21.0669 10.0857V11.0057C21.0657 13.1621 20.3651 15.2604 19.0696 16.9875C17.7741 18.7147 15.9532 19.9782 13.8783 20.5896C11.8035 21.201 9.5859 21.1276 7.55634 20.3803C5.52678 19.633 3.79398 18.2518 2.61635 16.4428C1.43873 14.6338 0.879389 12.4938 1.02175 10.342C1.16411 8.19029 2.00054 6.14205 3.40631 4.5028C4.81207 2.86354 6.71184 1.72111 8.82228 1.24587C10.9327 0.770634 13.1408 0.988061 15.1171 1.86572" stroke="#F76201" stroke-width="2" stroke-linecap="round" stroke-linejoin="round"></path>
    <path d="M21.0668 3.00562L11.0334 13.0156L8.02332 10.0156" stroke="#F76201" stroke-width="2" stroke-linecap="round" stroke-linejoin="round"></path>
  </symbol>
  <symbol fill="none" xmlns="http://www.w3.org/2000/svg" viewBox="0 0 60 60" id="box">
    <path d="M52.5 40V20C52.4991 19.1232 52.2676 18.262 51.8288 17.5029C51.3901 16.7438 50.7593 16.1134 50 15.675L32.5 5.675C31.7399 5.23616 30.8777 5.00513 30 5.00513C29.1223 5.00513 28.2601 5.23616 27.5 5.675L10 15.675C9.24066 16.1134 8.60995 16.7438 8.17115 17.5029C7.73236 18.262 7.5009 19.1232 7.5 20V40C7.5009 40.8768 7.73236 41.738 8.17115 42.4971C8.60995 43.2562 9.24066 43.8866 10 44.325L27.5 54.325C28.2601 54.7638 29.1223 54.9949 30 54.9949C30.8777 54.9949 31.7399 54.7638 32.5 54.325L50 44.325C50.7593 43.8866 51.3901 43.2562 51.8288 42.4971C52.2676 41.738 52.4991 40.8768 52.5 40Z" stroke="#FF6600" stroke-width="5" stroke-linecap="round" stroke-linejoin="round"></path>
    <path d="M8.17505 17.4L30 30.025L51.825 17.4" stroke="#FF6600" stroke-width="5" stroke-linecap="round" stroke-linejoin="round"></path>
    <path d="M30 55.2V30" stroke="#FF6600" stroke-width="5" stroke-linecap="round" stroke-linejoin="round"></path>
  </symbol>
  <symbol fill="none" xmlns="http://www.w3.org/2000/svg" viewBox="0 0 60 60" id="headphones">
    <path d="M7.5 45V30C7.5 24.0326 9.87053 18.3097 14.0901 14.0901C18.3097 9.87053 24.0326 7.5 30 7.5C35.9674 7.5 41.6903 9.87053 45.9099 14.0901C50.1295 18.3097 52.5 24.0326 52.5 30V45" stroke="#FF6600" stroke-width="5" stroke-linecap="round" stroke-linejoin="round"></path>
    <path d="M52.5 47.5C52.5 48.8261 51.9732 50.0979 51.0355 51.0355C50.0979 51.9732 48.8261 52.5 47.5 52.5H45C43.6739 52.5 42.4021 51.9732 41.4645 51.0355C40.5268 50.0979 40 48.8261 40 47.5V40C40 38.6739 40.5268 37.4021 41.4645 36.4645C42.4021 35.5268 43.6739 35 45 35H52.5V47.5ZM7.5 47.5C7.5 48.8261 8.02678 50.0979 8.96447 51.0355C9.90215 51.9732 11.1739 52.5 12.5 52.5H15C16.3261 52.5 17.5979 51.9732 18.5355 51.0355C19.4732 50.0979 20 48.8261 20 47.5V40C20 38.6739 19.4732 37.4021 18.5355 36.4645C17.5979 35.5268 16.3261 35 15 35H7.5V47.5Z" stroke="#FF6600" stroke-width="5" stroke-linecap="round" stroke-linejoin="round"></path>
  </symbol>
  <symbol fill="none" xmlns="http://www.w3.org/2000/svg" viewBox="0 0 60 60" id="rub">
    <path d="M22.1765 9V53" stroke="#FF6600" stroke-width="5" stroke-linecap="round" stroke-linejoin="round"></path>
    <path d="M17 41.7843L34.2549 41.7843" stroke="#FF6600" stroke-width="5" stroke-linecap="round" stroke-linejoin="round"></path>
    <path d="M22.1765 9H37.3333C42.3039 9 46.3333 13.0294 46.3333 18V22.4314C46.3333 27.4019 42.3039 31.4314 37.3333 31.4314H17" stroke="#FF6600" stroke-width="5" stroke-linecap="round" stroke-linejoin="round"></path>
  </symbol>
  <symbol fill="none" xmlns="http://www.w3.org/2000/svg" viewBox="0 0 60 60" id="home">
    <path d="M7.5 22.5L30 5L52.5 22.5V50C52.5 51.3261 51.9732 52.5979 51.0355 53.5355C50.0979 54.4732 48.8261 55 47.5 55H12.5C11.1739 55 9.90215 54.4732 8.96447 53.5355C8.02678 52.5979 7.5 51.3261 7.5 50V22.5Z" stroke="#FF6600" stroke-width="5" stroke-linecap="round" stroke-linejoin="round"></path>
    <path d="M22.5 55V30H37.5V55" stroke="#FF6600" stroke-width="5" stroke-linecap="round" stroke-linejoin="round"></path>
  </symbol>
  <symbol fill="none" xmlns="http://www.w3.org/2000/svg" viewBox="0 0 60 60" id="clock">
    <path d="M30 55C43.8071 55 55 43.8071 55 30C55 16.1929 43.8071 5 30 5C16.1929 5 5 16.1929 5 30C5 43.8071 16.1929 55 30 55Z" stroke="#FF6600" stroke-width="5" stroke-linecap="round" stroke-linejoin="round"></path>
    <path d="M30 15V30L40 35" stroke="#FF6600" stroke-width="5" stroke-linecap="round" stroke-linejoin="round"></path>
  </symbol>
  <symbol fill="none" xmlns="http://www.w3.org/2000/svg" viewBox="0 0 60 60" id="plus-circle">
    <path d="M30 55C43.8071 55 55 43.8071 55 30C55 16.1929 43.8071 5 30 5C16.1929 5 5 16.1929 5 30C5 43.8071 16.1929 55 30 55Z" stroke="#FF6600" stroke-width="5" stroke-linecap="round" stroke-linejoin="round"></path>
    <path d="M30 20V40" stroke="#FF6600" stroke-width="5" stroke-linecap="round" stroke-linejoin="round"></path>
    <path d="M20 30H40" stroke="#FF6600" stroke-width="5" stroke-linecap="round" stroke-linejoin="round"></path>
  </symbol>
  <symbol width="16" height="11" fill="none" xmlns="http://www.w3.org/2000/svg" viewBox="0 0 20 15" id="check">
    <path d="M18 2L7 13L2 8" stroke="#FF6600" stroke-width="3" stroke-linecap="round" stroke-linejoin="round"></path>
  </symbol>
  <symbol width="12" height="3" fill="none" xmlns="http://www.w3.org/2000/svg" viewBox="0 0 16 4" id="minus">
    <path d="M2 2H14" stroke="#FF6600" stroke-width="3" stroke-linecap="round"></path>
  </symbol>
  <symbol width="16" height="11" fill="none" xmlns="http://www.w3.org/2000/svg" viewBox="0 0 20 15" id="check-green">
    <path d="M18 2L7 13L2 8" stroke="#178A00" stroke-width="3" stroke-linecap="round" stroke-linejoin="round"></path>
  </symbol>
  <symbol width="20" height="20" fill="none" xmlns="http://www.w3.org/2000/svg" viewBox="0 0 40 40" id="arrow-left">
    <path d="M31.6666 20H8.33329" stroke="white" stroke-width="3" stroke-linecap="round" stroke-linejoin="round"></path>
    <path d="M20 8.33331L8.33333 20L20 31.6666" stroke="white" stroke-width="3" stroke-linecap="round" stroke-linejoin="round"></path>
  </symbol>
  <symbol width="20" height="20" fill="none" xmlns="http://www.w3.org/2000/svg" viewBox="0 0 40 40" id="arrow-right">
    <path d="M8.33331 20H31.6666" stroke="white" stroke-width="3" stroke-linecap="round" stroke-linejoin="round"></path>
    <path d="M20 8.33331L31.6667 20L20 31.6666" stroke="white" stroke-width="3" stroke-linecap="round" stroke-linejoin="round"></path>
  </symbol>
  <symbol width="50.49" height="48" fill="none" xmlns="http://www.w3.org/2000/svg" viewBox="0 0 51 49" id="flower">
    <path fill-rule="evenodd" clip-rule="evenodd" d="M48.0901 10.3793L44.5266 11.2952L39.9613 9.33459L35.3531 13.628L36.684 9.62082L33.4067 4.62618L35.4246 0.0751953L30.6447 3.43835V10.179L33.5069 15.2452L33.1634 18.6512L33.5212 18.78L33.1348 20.4974C32.7294 19.8602 32.2489 19.274 31.7037 18.7514C31.2233 20.1922 30.9252 21.6874 30.8164 23.2022C30.7801 23.6407 30.8785 24.0798 31.0984 24.4608C31.3183 24.8419 31.6493 25.1467 32.0472 25.3346L30.8021 30.916H31.6035L32.82 25.5779C33.2057 25.2438 33.5115 24.8272 33.7146 24.359C33.9177 23.8909 34.013 23.383 33.9935 22.8731C34.0053 22.4678 33.9372 22.0642 33.7931 21.6852L34.3942 19.0663L34.7377 19.2094L36.5838 17.535L43.7395 18.4366L47.8182 15.2452H50.6805L48.0901 10.3793ZM35.2672 32.7049H33.693L32.0758 36.6691L36.9559 48.0323H39.2314L33.2779 36.6691L35.2672 32.7049ZM0.190186 48.0752H11.353V0.118086H0.190186V48.0752ZM2.30825 4.59752H9.23491V28.4687H2.30825V4.59752ZM5.77158 37.0555C6.46223 37.0555 7.13736 37.2603 7.71161 37.644C8.28586 38.0277 8.73343 38.5731 8.99773 39.2111C9.26203 39.8492 9.33118 40.5513 9.19644 41.2287C9.0617 41.9061 8.72913 42.5283 8.24077 43.0166C7.75241 43.505 7.1302 43.8376 6.45283 43.9723C5.77546 44.107 5.07334 44.0379 4.43527 43.7736C3.7972 43.5093 3.25183 43.0617 2.86813 42.4875C2.48443 41.9132 2.27963 41.2381 2.27963 40.5475C2.2834 39.6225 2.65251 38.7365 3.30656 38.0824C3.96062 37.4284 4.84662 37.0593 5.77158 37.0555ZM37.6428 9.23437L37.0131 11.0233L39.7322 8.17534L44.3834 10.2075L48.8056 9.04832L45.9863 6.40074L40.6625 4.9553L45.8718 5.3417L39.2743 0.475868L39.3315 6.3578L38.4442 1.29161H35.8396L34.4371 4.38285L37.6428 9.23437ZM37.8575 21.0412C36.9209 21.3226 36.1166 21.9313 35.5912 22.7561C35.0658 23.581 34.8543 24.5672 34.9952 25.5349C35.8079 25.9748 36.702 26.2437 37.6226 26.3249C38.5431 26.4061 39.4705 26.298 40.3476 26.0072C43.6392 25.0913 46.3154 24.1753 46.3154 24.1753C46.3154 24.1753 41.2206 20.1109 37.8575 21.0412ZM37.3709 30.9446C37.1816 29.6766 36.7176 28.4653 36.0113 27.3954C35.7304 26.9339 35.3247 26.5613 34.841 26.3207C34.3573 26.0802 33.8153 25.9814 33.2779 26.0358C32.9375 26.4928 32.7537 27.0474 32.7537 27.6172C32.7537 28.187 32.9375 28.7416 33.2779 29.1986C34.4228 30.916 37.3709 30.9446 37.3709 30.9446ZM28.0829 32.7049H31.5176L30.387 36.6691L33.7788 48.0323H28.0829V32.7049ZM25.2922 48.0323H14.1437V0.0751953H25.2922V48.0323ZM23.1741 4.55463H16.2475V28.3686H23.1741V4.55463ZM21.6276 37.6095C21.0511 37.2268 20.374 37.0241 19.6822 37.0269C18.7598 37.0269 17.8753 37.3933 17.2231 38.0455C16.5709 38.6977 16.2045 39.5822 16.2045 40.5046C16.2017 41.1964 16.4045 41.8735 16.7871 42.45C17.1697 43.0264 17.7149 43.4762 18.3536 43.7422C18.9922 44.0083 19.6955 44.0787 20.3742 43.9444C21.0529 43.8101 21.6764 43.4772 22.1656 42.988C22.6549 42.4988 22.9877 41.8753 23.122 41.1966C23.2563 40.5179 23.1859 39.8146 22.9199 39.1759C22.6538 38.5373 22.204 37.9921 21.6276 37.6095Z" fill="url(#paint0_linear_555_1277)"></path>
    <defs>
      <linearGradient id="paint0_linear_555_1277" x1="5.94224" y1="41.3916" x2="44.1718" y2="1.1787" gradientUnits="userSpaceOnUse">
        <stop stop-color="#FE4E00"></stop>
        <stop offset="1" stop-color="#FF914B"></stop>
      </linearGradient>
    </defs>
  </symbol>
  <symbol width="53" height="40" fill="none" xmlns="http://www.w3.org/2000/svg" viewBox="0 0 53 41" id="book">
    <path fill-rule="evenodd" clip-rule="evenodd" d="M52.2844 3.75119C52.2574 3.74444 52.1674 3.70866 52.0198 3.65002C50.7614 3.14977 45.3175 0.98584 39.1007 0.98584C33.2485 0.98584 28.168 2.85084 26.4959 3.55826C24.8881 2.91515 19.7433 0.98584 13.8911 0.98584C7.73518 0.98584 2.29984 3.14747 1.03821 3.64921L1.0382 3.64922C0.889546 3.70834 0.79884 3.74441 0.771725 3.75119C0.321552 4.00843 0 4.4586 0 4.97309V39.7007C0 40.1509 0.192931 40.5368 0.578794 40.794C0.624341 40.8092 0.673472 40.828 0.725341 40.8478C0.893184 40.9119 1.0897 40.9869 1.28621 40.9869C1.43888 40.9869 1.55128 40.9467 1.68714 40.898C1.72297 40.8852 1.76043 40.8717 1.80069 40.8583C1.80667 40.8583 1.86441 40.8361 1.96913 40.7957L1.96923 40.7956C2.99058 40.4019 8.47868 38.2859 14.0197 38.2859C20.0649 38.2859 25.9814 40.794 26.0457 40.8583H26.11C26.1743 40.8583 26.2387 40.8583 26.2387 40.9226C26.303 40.9226 26.3673 40.9226 26.3673 40.9869H26.4959H26.6245C26.6888 40.9869 26.7531 40.9869 26.7531 40.9226C26.8175 40.9226 26.8818 40.9226 26.8818 40.8583H26.9461C26.9521 40.8583 27.0093 40.8358 27.1129 40.7951C28.1179 40.3998 33.4922 38.2859 38.9721 38.2859C44.4521 38.2859 49.9849 40.3998 51.0195 40.7951C51.1262 40.8358 51.1851 40.8583 51.1911 40.8583C51.2314 40.8717 51.2688 40.8852 51.3047 40.898C51.4405 40.9467 51.5529 40.9869 51.7056 40.9869C51.9628 40.9869 52.2201 40.9226 52.413 40.794C52.7989 40.5368 52.9918 40.1509 52.9918 39.7007V4.97309C53.0561 4.4586 52.7346 4.00843 52.2844 3.75119ZM2.57242 37.8357V5.80912C4.3088 5.10171 8.93915 3.55826 13.9554 3.55826C18.9716 3.55826 23.4733 5.10171 25.274 5.80912V37.8357C22.8945 36.9997 18.5214 35.7135 14.0197 35.7135C9.45363 35.7135 4.9519 36.9997 2.57242 37.8357ZM50.4837 37.8357C48.1042 36.9997 43.6025 35.7135 39.0364 35.7135C34.4704 35.7135 30.1616 36.9997 27.7821 37.8357V5.80912C29.5828 5.10171 34.0845 3.55826 39.1007 3.55826C44.117 3.55826 48.683 5.10171 50.4837 5.80912V37.8357ZM6.49527 13.2692C6.6882 13.2692 6.88113 13.2049 7.00975 13.1406C7.01727 13.1406 7.06789 13.1203 7.1573 13.0846L7.15732 13.0846C7.8324 12.8148 10.7183 11.6614 13.9553 11.6614C17.5567 11.6614 20.7079 13.0762 20.8365 13.1406C21.4796 13.4621 22.2513 13.1406 22.5086 12.4975C22.8301 11.8544 22.5086 11.0826 21.8655 10.8254C21.7368 10.7611 18.1355 9.15331 13.9553 9.15331C9.7751 9.15331 6.1094 10.7611 5.98078 10.8254C5.33768 11.1469 5.01613 11.8544 5.33768 12.4975C5.53061 13.0119 5.98078 13.2692 6.49527 13.2692ZM13.9554 16.4848C17.9427 16.4848 21.737 18.0926 21.8656 18.1569C22.5087 18.4142 22.7659 19.1859 22.4444 19.8933C22.2515 20.3435 21.8013 20.665 21.2868 20.665C21.1341 20.665 21.0217 20.6248 20.8859 20.5761L20.8858 20.5761C20.85 20.5632 20.8126 20.5498 20.7723 20.5364C20.7646 20.5364 20.708 20.5148 20.6086 20.4769C19.8847 20.2007 16.8879 19.0573 13.8911 19.0573C10.8943 19.0573 7.84777 20.2007 7.11191 20.4769C7.01083 20.5148 6.95335 20.5364 6.94558 20.5364C6.30247 20.7936 5.53075 20.4721 5.27351 19.829C5.01627 19.1859 5.33782 18.4142 5.98092 18.1569C5.9958 18.152 6.03209 18.1378 6.08823 18.116C6.76015 17.8542 10.2756 16.4848 13.9554 16.4848ZM21.8656 25.488C21.737 25.4236 17.9427 23.8159 13.9554 23.8159C10.2756 23.8159 6.76016 25.1853 6.08823 25.447L6.08822 25.447C6.03208 25.4689 5.9958 25.483 5.98092 25.488C5.33782 25.7452 5.01627 26.5169 5.27351 27.16C5.53075 27.8031 6.30247 28.1247 6.94558 27.8674C6.95335 27.8674 7.01083 27.8459 7.11191 27.8079C7.84777 27.5317 10.8943 26.3883 13.8911 26.3883C16.8879 26.3883 19.8847 27.5317 20.6086 27.8079C20.708 27.8459 20.7646 27.8674 20.7723 27.8674C20.8126 27.8809 20.85 27.8943 20.8858 27.9071L20.8859 27.9071C21.0217 27.9558 21.1341 27.9961 21.2868 27.9961C21.8013 27.9961 22.2515 27.6745 22.4444 27.2243C22.7659 26.5169 22.5087 25.7452 21.8656 25.488ZM32.2195 13.1406C31.5764 13.4621 30.869 13.1406 30.5474 12.4975C30.2902 11.8544 30.5474 11.0826 31.1906 10.8254C31.3192 10.7611 34.9849 9.15331 39.1651 9.15331C43.3452 9.15331 46.9466 10.7611 47.0752 10.8254C47.7183 11.0826 48.0399 11.8544 47.7183 12.4975C47.5254 13.0119 47.0752 13.2692 46.5608 13.2692C46.4081 13.2692 46.2957 13.2289 46.1598 13.1802L46.1596 13.1802L46.1594 13.1801C46.1237 13.1673 46.0864 13.1539 46.0463 13.1406C45.982 13.0762 42.7664 11.6614 39.1651 11.6614C35.9882 11.6614 33.0615 12.8124 32.3716 13.0837C32.2794 13.12 32.2271 13.1406 32.2195 13.1406ZM47.0752 18.1569C46.9466 18.0926 43.1523 16.4848 39.165 16.4848C35.4852 16.4848 31.9698 17.8542 31.2978 18.116C31.2417 18.1378 31.2054 18.152 31.1905 18.1569C30.5474 18.4142 30.2259 19.1859 30.4831 19.829C30.7404 20.4721 31.5121 20.7936 32.1552 20.5364C32.163 20.5364 32.2204 20.5148 32.3215 20.4769C33.0574 20.2007 36.1039 19.0573 39.1007 19.0573C42.0975 19.0573 45.0944 20.2007 45.8182 20.4769C45.9176 20.5148 45.9742 20.5364 45.9819 20.5364C46.0222 20.5498 46.0597 20.5633 46.0955 20.5761C46.2314 20.6248 46.3438 20.665 46.4964 20.665C47.0109 20.665 47.4611 20.3435 47.654 19.8933C48.0399 19.1859 47.7183 18.4142 47.0752 18.1569ZM39.165 23.8159C43.1523 23.8159 46.9466 25.4236 47.0752 25.488C47.7183 25.7452 48.0399 26.5169 47.654 27.2243C47.4611 27.6745 47.0109 27.9961 46.4964 27.9961C46.3438 27.9961 46.2314 27.9558 46.0955 27.9071C46.0597 27.8943 46.0222 27.8809 45.9819 27.8674C45.9742 27.8674 45.9176 27.8459 45.8182 27.8079C45.0944 27.5317 42.0975 26.3883 39.1007 26.3883C36.1039 26.3883 33.0574 27.5317 32.3215 27.8079C32.2204 27.8459 32.163 27.8674 32.1552 27.8674C31.5121 28.1247 30.7404 27.8031 30.4831 27.16C30.2259 26.5169 30.5474 25.7452 31.1905 25.488C31.2054 25.483 31.2417 25.4689 31.2978 25.447C31.9697 25.1853 35.4852 23.8159 39.165 23.8159Z" fill="url(#paint0_linear_555_1289)"></path>
    <defs>
      <linearGradient id="paint0_linear_555_1289" x1="6.03797" y1="35.4172" x2="36.7151" y2="-5.22888" gradientUnits="userSpaceOnUse">
        <stop stop-color="#93B209"></stop>
        <stop offset="1" stop-color="#E6EF37"></stop>
      </linearGradient>
    </defs>
  </symbol>
  <symbol width="51" height="47.67" viewBox="0 0 78 78" fill="none" xmlns="https://www.w3.org/2000/svg" id="book-arrow">
    <path d="M49.9141 45.9282C49.2881 45.9282 48.7758 46.4514 48.7758 47.0909V60.3457H22.1959V33.3709C22.5374 33.3128 22.9358 33.2546 23.2773 33.2546H25.4402L23.6758 35.0568C23.2204 35.5219 23.2204 36.2195 23.6758 36.6846C23.9034 36.9172 24.188 37.0334 24.4726 37.0334C24.7572 37.0334 25.0417 36.9172 25.2694 36.6846L28.969 32.9058C29.4243 32.4407 29.4243 31.7431 28.969 31.278L25.2694 27.4992C24.8141 27.0341 24.1311 27.0341 23.6758 27.4992C23.2204 27.9643 23.2204 28.6619 23.6758 29.127L25.4402 30.9292H23.2773C22.9358 30.9292 22.5374 30.9292 22.1959 30.9874V25.7552H48.7758V37.3241C48.7758 37.9636 49.2881 38.4868 49.9141 38.4868C50.5402 38.4868 51.0525 37.9636 51.0525 37.3241V24.5925C51.0525 23.953 50.5402 23.4297 49.9141 23.4297H21.0576C20.4315 23.4297 19.9193 23.953 19.9193 24.5925V31.5687C16.4474 32.964 14 36.4521 14 40.4634C14 42.9051 14.9107 45.2305 16.5612 46.9746C16.7889 47.2071 17.0735 47.3234 17.415 47.3234C17.6996 47.3234 17.9841 47.2071 18.2118 47.0327C18.6671 46.5676 18.6671 45.87 18.2687 45.4049C16.9596 44.0678 16.2766 42.2656 16.2766 40.4634C16.2766 37.7311 17.7565 35.3475 19.9193 34.1848V61.5085C19.9193 62.1479 20.4315 62.6712 21.0576 62.6712H49.9141C50.5402 62.6712 51.0525 62.1479 51.0525 61.5085V47.0909C51.0525 46.4514 50.5402 45.9282 49.9141 45.9282Z" fill="#FF6600"/>
    <path d="M45.1901 29.476H35.9127C35.2867 29.476 34.7744 29.9992 34.7744 30.6387C34.7744 31.2781 35.2867 31.8014 35.9127 31.8014H45.1901C45.8162 31.8014 46.3284 31.2781 46.3284 30.6387C46.3284 29.9992 45.8162 29.476 45.1901 29.476Z" fill="#FF6600"/>
    <path d="M45.1901 34.2428H35.9127C35.2867 34.2428 34.7744 34.766 34.7744 35.4055C34.7744 36.045 35.2867 36.5682 35.9127 36.5682H45.1901C45.8162 36.5682 46.3284 36.045 46.3284 35.4055C46.3284 34.766 45.8162 34.2428 45.1901 34.2428Z" fill="#FF6600"/>
    <path d="M45.19 39.0099H25.497C24.8709 39.0099 24.3587 39.5331 24.3587 40.1726C24.3587 40.8121 24.8709 41.3353 25.497 41.3353H45.19C45.8161 41.3353 46.3284 40.8121 46.3284 40.1726C46.3284 39.5331 45.8161 39.0099 45.19 39.0099Z" fill="#FF6600"/>
    <path d="M45.19 43.7192H25.497C24.8709 43.7192 24.3587 44.2425 24.3587 44.8819C24.3587 45.5214 24.8709 46.0447 25.497 46.0447H45.19C45.8161 46.0447 46.3284 45.5214 46.3284 44.8819C46.3284 44.2425 45.8161 43.7192 45.19 43.7192Z" fill="#FF6600"/>
  </symbol>
  <symbol fill="none" xmlns="http://www.w3.org/2000/svg" viewBox="0 0 52 52" id="inst">
    <rect width="52" height="52" rx="10" fill="#FF6600"></rect>
    <path d="M31.3801 15.2412H20.6215C17.6506 15.2412 15.2422 17.6496 15.2422 20.6205V31.3791C15.2422 34.3501 17.6506 36.7585 20.6215 36.7585H31.3801C34.351 36.7585 36.7594 34.3501 36.7594 31.3791V20.6205C36.7594 17.6496 34.351 15.2412 31.3801 15.2412Z" fill="#FF6600" stroke="white" stroke-width="3" stroke-linecap="round" stroke-linejoin="round"></path>
    <path d="M30.3025 25.3226C30.4353 26.218 30.2824 27.1324 29.8655 27.9359C29.4486 28.7393 28.789 29.3909 27.9804 29.7978C27.1719 30.2048 26.2556 30.3464 25.362 30.2026C24.4683 30.0588 23.6427 29.6369 23.0026 28.9968C22.3626 28.3568 21.9407 27.5312 21.7968 26.6375C21.653 25.7439 21.7947 24.8276 22.2017 24.0191C22.6086 23.2105 23.2601 22.5509 24.0636 22.134C24.8671 21.7171 25.7815 21.5642 26.6769 21.6969C27.5902 21.8324 28.4358 22.258 29.0886 22.9108C29.7415 23.5637 30.1671 24.4093 30.3025 25.3226Z" fill="#FF6600" stroke="white" stroke-width="3" stroke-linecap="round" stroke-linejoin="round"></path>
    <path d="M31.916 20.083H31.9264" stroke="white" stroke-width="3" stroke-linecap="round" stroke-linejoin="round"></path>
  </symbol>
  <symbol fill="none" xmlns="http://www.w3.org/2000/svg" viewBox="0 0 53 52" id="fb">
    <rect x="0.758301" width="52" height="52" rx="10" fill="#FF6600"></rect>
    <path d="M33.2144 15.2412H29.9868C28.5601 15.2412 27.1918 15.808 26.183 16.8168C25.1742 17.8256 24.6075 19.1938 24.6075 20.6205V23.8481H21.3799V28.1516H24.6075V36.7585H28.9109V28.1516H32.1385L33.2144 23.8481H28.9109V20.6205C28.9109 20.3352 29.0243 20.0615 29.226 19.8598C29.4278 19.658 29.7014 19.5447 29.9868 19.5447H33.2144V15.2412Z" fill="white"></path>
  </symbol>
  <symbol fill="none" xmlns="http://www.w3.org/2000/svg" viewBox="0 0 53 52" id="vk">
    <rect x="0.517456" width="52" height="52" rx="10" fill="#FF6600"></rect>
    <path d="M38.459 19.8009C38.6249 19.2405 38.459 18.8281 37.6611 18.8281H35.0208C34.3483 18.8281 34.039 19.1823 33.8732 19.5768C33.8732 19.5768 32.5284 22.8536 30.6277 24.9784C30.0136 25.5925 29.7312 25.7898 29.395 25.7898C29.2292 25.7898 28.9736 25.5925 28.9736 25.0322V19.8009C28.9736 19.1284 28.7853 18.8281 28.2295 18.8281H24.0784C23.6571 18.8281 23.406 19.1419 23.406 19.4333C23.406 20.0698 24.3564 20.2177 24.455 22.0108V25.9019C24.455 26.7536 24.3026 26.9104 23.9664 26.9104C23.0698 26.9104 20.8912 23.6202 19.6002 19.8547C19.3403 19.124 19.0847 18.8281 18.4078 18.8281H15.7674C15.0143 18.8281 14.8618 19.1823 14.8618 19.5768C14.8618 20.276 15.7584 23.7502 19.0353 28.3405C21.2184 31.4739 24.2935 33.173 27.0907 33.173C28.7717 33.173 28.978 32.7964 28.978 32.1464C28.978 29.1519 28.8256 28.8694 29.6684 28.8694C30.0583 28.8694 30.7307 29.0667 32.2998 30.5773C34.0927 32.3704 34.3887 33.1729 35.3928 33.1729H38.0331C38.7863 33.1729 39.1673 32.7964 38.9476 32.0521C38.4456 30.4877 35.0521 27.2691 34.8997 27.0539C34.5097 26.5518 34.6217 26.3276 34.8997 25.8793C34.9043 25.875 38.1272 21.3384 38.459 19.8009Z" fill="white"></path>
  </symbol>
  <symbol fill="none" xmlns="http://www.w3.org/2000/svg" viewBox="0 0 52 52" id="ok">
    <rect width="52" height="52" rx="10" fill="#FF6600"></rect>
    <path d="M26.3941 14C23.0852 14 20.3943 16.6909 20.3943 19.9998C20.3943 23.3088 23.0852 25.9997 26.3941 25.9997C29.7031 25.9997 32.394 23.3088 32.394 19.9998C32.394 16.6909 29.7031 14 26.3941 14ZM26.3941 22.9998C24.7397 22.9998 23.3942 21.6543 23.3942 19.9998C23.3942 18.3454 24.7397 16.9999 26.3941 16.9999C28.0486 16.9999 29.3941 18.3454 29.3941 19.9998C29.3941 21.6543 28.0486 22.9998 26.3941 22.9998Z" fill="white"></path>
    <path d="M34.35 25.8334C33.7635 25.2469 32.8155 25.2469 32.229 25.8334C29.0131 29.0493 23.7782 29.0493 20.5608 25.8334C19.9743 25.2469 19.0263 25.2469 18.4399 25.8334C17.8534 26.4199 17.8534 27.3679 18.4399 27.9559C20.3058 29.8218 22.6713 30.8853 25.1102 31.1628L20.8338 35.4392C20.2473 36.0257 20.2473 36.9736 20.8338 37.5601C21.4203 38.1466 22.3683 38.1466 22.9548 37.5601L26.3942 34.1207L29.8336 37.5601C30.1261 37.8526 30.5101 37.9996 30.8941 37.9996C31.278 37.9996 31.662 37.8526 31.9545 37.5601C32.541 36.9736 32.541 36.0257 31.9545 35.4392L27.6781 31.1628C30.1171 30.8853 32.4825 29.8218 34.3485 27.9559C34.9349 27.3694 34.9349 26.4199 34.35 25.8334Z" fill="white"></path>
  </symbol>
  <symbol fill="none" xmlns="http://www.w3.org/2000/svg" viewBox="0 0 53 52" id="youtube">
    <rect x="0.275635" width="52" height="52" rx="10" fill="#FF6600"></rect>
    <path d="M39.1559 21.5268C39.1559 21.5268 38.9095 19.7891 38.1546 19.0224C37.1954 18.0187 36.1202 18.0136 35.6276 17.9539C32.0976 17.6992 26.7989 17.6992 26.7989 17.6992C26.7989 17.6992 21.4993 17.6992 17.9702 17.9548C17.4775 18.0136 16.4023 18.0187 15.4431 19.0233C14.6865 19.7891 14.441 21.5268 14.441 21.5268C14.441 21.5268 14.1888 23.2249 14.1888 25.2652V27.7881C14.1888 29.8284 14.441 31.6039 14.441 31.6039C14.441 31.6039 14.6865 33.3407 15.4431 34.1065C16.4023 35.1111 17.6625 35.08 18.2241 35.1851C20.2417 35.3785 26.7989 35.3541 26.7989 35.3541C26.7989 35.3541 32.0976 35.4298 35.6276 35.175C36.1202 35.1162 37.1954 35.1111 38.1546 34.1065C38.9095 33.3415 39.1559 31.6039 39.1559 31.6039C39.1559 31.6039 39.4089 29.8292 39.4089 27.7889V25.2661C39.4089 23.2249 39.1559 21.5268 39.1559 21.5268ZM24.1124 29.8948V23.1694L30.8377 26.5321L24.1124 29.8948Z" fill="white"></path>
  </symbol>

</svg>
